<svg xmlns="http://www.w3.org/2000/svg" viewBox="0 0 64 64" role="img" aria-label="Edwinfred Kamau">
  <rect width="64" height="64" rx="13" ry="13" fill="#f6f2e9"/>
  <path d="M26.364524822358355 29.07368710208471H33.72868186022735Q35.06474585565732 29.07368710208471 35.55119916391765 28.550159754922248Q36.03765247217798 28.02663240775979 36.3137164103583 26.706640746105997Q36.50356295681132 26.096898324678953 36.85779503294338 25.781085442226114Q37.212027109075436 25.46527255977328 37.74627575244001 25.44919204677562Q38.92510506589364 25.419711242594733 39.22617740988575 26.717808109660144L40.79095457616998 32.90544782817781Q40.993307642991624 33.71217987364993 40.7708537304507 34.196620629818376Q40.54839981790978 34.68106138598682 39.891310718933816 34.89904903465795Q39.36465408345718 35.07549528992773 38.862790385921144 34.88163113716024Q38.360926688385106 34.68776698439276 37.99731601699503 34.14101263854843Q37.487630666182945 33.300326299896895 37.03802774973208 32.846928742705636Q36.58842483328121 32.39353118551438 35.96796234248535 32.222670111595534Q35.34749985168949 32.05180903767668 34.30669746328974 32.05180903767668H26.364524822358355ZM18.50710391031547 16.402768014975013Q18.50710391031547 15.71440975230006 18.950226238656654 15.312160465952697Q19.393348566997833 14.909911179605334 20.31890305282244 14.909911179605334H36.726900688963774Q37.64307835167837 14.909911179605334 38.260413053567504 14.680758348306096Q38.87774775545664 14.451605517006858 39.42294038802326 14.225802758503429Q39.968133020589875 14.0 40.619865492973574 14.0Q41.59723632830905 14.0 42.07721122955214 14.528218757698777Q42.55718613079523 15.056437515397555 42.889976296041645 16.2334839221474L44.50299800046656 21.975756252399275Q44.7218794199523 22.691809958884736 44.39423054979723 23.183176143681607Q44.066581679642155 23.674542328478477 43.36214290396955 23.83848206337964Q42.73453079213789 23.960434473731294 42.17325587442561 23.720111552304342Q41.611980956713325 23.47978863087739 41.22871577969656 22.69047952677286Q40.53409730428271 21.15473614289193 39.8828104903066 20.251513112620156Q39.2315236763305 19.34829008234838 38.54405550363745 18.880595736752113Q37.8565873309444 18.412901391155845 37.065709288433425 18.25566221079073Q36.27483124592244 18.09842303042562 35.27601536418334 18.09842303042562H29.704488972561293V40.177184789869926Q29.704488972561293 41.577571382438826 30.458283842523112 42.28379456438907Q31.21207871248493 42.99001774633932 32.68527040933985 42.99001774633932H35.78525451110669Q37.23969856003702 42.99001774633932 38.31869526819003 42.589999206195785Q39.39769197634304 42.18998066605224 40.32213313403751 41.007796371970386Q41.246574291731974 39.825612077888536 42.24092568191571 37.50502217294016Q42.53842594179709 36.77824866982644 43.063294626700056 36.516485746032146Q43.588163311603026 36.254722822237845 44.248380472059864 36.384711263107306Q44.98498300013493 36.5397146532323 45.30236154910594 37.100317402500465Q45.619740098076946 37.660920151768636 45.408452594997435 38.513662171974616L43.76192361917069 44.76115563422376Q43.435387668367724 45.90693287727462 42.93709796346073 46.45346643863731Q42.43880825855373 47.0 41.456075071071126 47.0Q40.83873982386727 47.0 40.30918136420572 46.7956373802342Q39.77962290454417 46.5912747604684 39.1446432499725 46.384902178814Q38.509663595400845 46.1785295971596 37.627881249347816 46.1785295971596H20.31890305282244Q19.393348566997833 46.1785295971596 18.950226238656654 45.7718130926833Q18.50710391031547 45.365096588207 18.50710391031547 44.685672761789924Q18.50710391031547 43.52605011429654 19.679676555659043 43.02307254314924L20.660617566586968 42.71038554108483Q21.257397721498023 42.5174136595581 21.592861974225958 42.13705562317028Q21.928326226953892 41.756697586782465 21.928326226953892 41.02680665507595V20.061634121688986Q21.928326226953892 19.33174318998247 21.592861974225958 18.949375191706054Q21.257397721498023 18.56700719342964 20.660617566586968 18.378055235680105L19.679676555659043 18.065368233615697Q18.50710391031547 17.562390662468403 18.50710391031547 16.402768014975013Z" fill="#1a1814"/>
  <path d="M 15.31 54.00 C 25.56 51.10, 33.77 54.20, 40.95 52.30 S 50.79 50.20, 51.49 49.20" fill="none" stroke="#243f63" stroke-width="3.4" stroke-linecap="round"/>
</svg>
